<svg width="14" height="14" viewBox="0 0 14 14" fill="none" xmlns="http://www.w3.org/2000/svg">
<g clip-path="url(#clip0_1_1531)">
<path d="M7.13078 1.16675H6.87411C6.56469 1.16675 6.26794 1.28966 6.04915 1.50846C5.83036 1.72725 5.70744 2.024 5.70744 2.33341V2.43841C5.70723 2.643 5.65323 2.84394 5.55084 3.02107C5.44845 3.1982 5.30129 3.34529 5.12411 3.44758L4.87328 3.59341C4.69592 3.69581 4.49474 3.74972 4.28994 3.74972C4.08515 3.74972 3.88396 3.69581 3.70661 3.59341L3.61911 3.54675C3.3514 3.39232 3.03335 3.35042 2.73478 3.43026C2.43621 3.5101 2.18151 3.70514 2.02661 3.97258L1.89828 4.19425C1.74385 4.46196 1.70195 4.78001 1.78179 5.07858C1.86163 5.37715 2.05667 5.63184 2.32411 5.78675L2.41161 5.84508C2.58794 5.94688 2.73455 6.09305 2.83689 6.26907C2.93922 6.44508 2.99371 6.64482 2.99494 6.84841V7.14591C2.99576 7.35149 2.94224 7.55364 2.8398 7.73188C2.73736 7.91012 2.58965 8.05813 2.41161 8.16091L2.32411 8.21341C2.05667 8.36832 1.86163 8.62301 1.78179 8.92158C1.70195 9.22015 1.74385 9.5382 1.89828 9.80591L2.02661 10.0276C2.18151 10.295 2.43621 10.4901 2.73478 10.5699C3.03335 10.6497 3.3514 10.6078 3.61911 10.4534L3.70661 10.4067C3.88396 10.3044 4.08515 10.2504 4.28994 10.2504C4.49474 10.2504 4.69592 10.3044 4.87328 10.4067L5.12411 10.5526C5.30129 10.6549 5.44845 10.802 5.55084 10.9791C5.65323 11.1562 5.70723 11.3572 5.70744 11.5617V11.6667C5.70744 11.9762 5.83036 12.2729 6.04915 12.4917C6.26794 12.7105 6.56469 12.8334 6.87411 12.8334H7.13078C7.4402 12.8334 7.73694 12.7105 7.95573 12.4917C8.17453 12.2729 8.29744 11.9762 8.29744 11.6667V11.5617C8.29765 11.3572 8.35166 11.1562 8.45404 10.9791C8.55643 10.802 8.7036 10.6549 8.88078 10.5526L9.13161 10.4067C9.30896 10.3044 9.51015 10.2504 9.71494 10.2504C9.91973 10.2504 10.1209 10.3044 10.2983 10.4067L10.3858 10.4534C10.6535 10.6078 10.9715 10.6497 11.2701 10.5699C11.5687 10.4901 11.8234 10.295 11.9783 10.0276L12.1066 9.80008C12.261 9.53237 12.3029 9.21432 12.2231 8.91575C12.1433 8.61718 11.9482 8.36249 11.6808 8.20758L11.5933 8.16091C11.4152 8.05813 11.2675 7.91012 11.1651 7.73188C11.0626 7.55364 11.0091 7.35149 11.0099 7.14591V6.85425C11.0091 6.64867 11.0626 6.44653 11.1651 6.26828C11.2675 6.09004 11.4152 5.94204 11.5933 5.83925L11.6808 5.78675C11.9482 5.63184 12.1433 5.37715 12.2231 5.07858C12.3029 4.78001 12.261 4.46196 12.1066 4.19425L11.9783 3.97258C11.8234 3.70514 11.5687 3.5101 11.2701 3.43026C10.9715 3.35042 10.6535 3.39232 10.3858 3.54675L10.2983 3.59341C10.1209 3.69581 9.91973 3.74972 9.71494 3.74972C9.51015 3.74972 9.30896 3.69581 9.13161 3.59341L8.88078 3.44758C8.7036 3.34529 8.55643 3.1982 8.45404 3.02107C8.35166 2.84394 8.29765 2.643 8.29744 2.43841V2.33341C8.29744 2.024 8.17453 1.72725 7.95573 1.50846C7.73694 1.28966 7.4402 1.16675 7.13078 1.16675Z" stroke="#4A5565" stroke-width="1.16667" stroke-linecap="round" stroke-linejoin="round"/>
<path d="M7 8.75C7.9665 8.75 8.75 7.9665 8.75 7C8.75 6.0335 7.9665 5.25 7 5.25C6.0335 5.25 5.25 6.0335 5.25 7C5.25 7.9665 6.0335 8.75 7 8.75Z" stroke="#4A5565" stroke-width="1.16667" stroke-linecap="round" stroke-linejoin="round"/>
</g>
<defs>
<clipPath id="clip0_1_1531">
<rect width="14" height="14" fill="white"/>
</clipPath>
</defs>
</svg>
